<?xml version="1.0" encoding="utf-8"?>
<!-- Generator: Adobe Illustrator 25.4.6, SVG Export Plug-In . SVG Version: 6.00 Build 0)  -->
<svg version="1.1" id="Livello_1" xmlns="http://www.w3.org/2000/svg" xmlns:xlink="http://www.w3.org/1999/xlink" x="0px" y="0px"
	 viewBox="0 0 113.06 26" style="enable-background:new 0 0 113.06 26;" xml:space="preserve">
<style type="text/css">
	.st0{clip-path:url(#SVGID_00000028327038880945607670000001335049006569512358_);fill:#1E1E1C;}
	.st1{fill:#010202;}
</style>
<g>
	<defs>
		<rect id="SVGID_1_" x="8.07" y="1.26" width="93.73" height="21.59"/>
	</defs>
	<clipPath id="SVGID_00000131357423071490843330000005609838116658394756_">
		<use xlink:href="#SVGID_1_"  style="overflow:visible;"/>
	</clipPath>
	<path style="clip-path:url(#SVGID_00000131357423071490843330000005609838116658394756_);fill:#1E1E1C;" d="M32.55,1.87h1.92v20.35
		h-1.92v0.13h6.55v-0.13h-1.95V11.83h0.37c1.21,0,2.76,1.41,2.76,3.96h0.09V7.75h-0.09c0,2.79-1.65,3.95-2.75,3.95h-0.38V1.87h2.01
		c2.95,0,4.01,3.54,4.01,5.95h0.09V1.74H32.55V1.87z M85.59,22.22h-2.41V11.83h0.56c1.21,0,2.76,1.41,2.76,3.96h0.09V7.75H86.5
		c0,2.79-1.65,3.95-2.75,3.95h-0.57V1.87h2.01c2.95,0,4.01,3.54,4.01,5.95h0.09V1.74H78.57v0.13h1.93v20.35h-1.9v0.13h11.73V15.7
		h-0.09C90.24,18.74,88.61,22.22,85.59,22.22 M101.72,15.4c0,3.04-1.37,6.83-4.39,6.83h-2.14V1.87h1.94V1.74h-6.55v0.13h1.93v20.35
		h-1.9v0.13h11.2V15.4H101.72z M14.82,22.22h-2.14V1.87h1.94V1.74H8.07v0.13H10v20.35H8.1v0.13h11.2V15.4h-0.09
		C19.21,18.44,17.84,22.22,14.82,22.22 M71.68,1.87h1.93v20.35h-1.93v0.13h6.55v-0.13h-1.94V1.87h1.94V1.74h-6.55V1.87z M59,1.87
		h1.94V1.74h-6.55v0.13h1.93v20.35h-1.93v0.13h6.55v-0.13H59V1.87z M17.56,8.67l0.02,0.1c1.27-0.47,2.23-2.26,2.78-3.97
		c0.33-1.01,0.32-2.18-0.1-2.93c-0.54-0.96-1.73-0.71-2.17,0.06c-0.29,0.51-0.5,1.37,0.06,2.16c0.18,0.25,0.39,0.36,0.61,0.63
		c0.34,0.42,0.65,1.06,0.5,1.89C19.11,7.54,18.17,8.48,17.56,8.67 M30.42,12.05c0-5.96-0.36-10.68-3.64-10.68
		c-3.28,0-3.64,4.72-3.64,10.68c0,5.96,0.38,10.7,3.66,10.7C30.09,22.75,30.42,18.01,30.42,12.05 M33.34,12.05
		c0,5.96-2.94,10.79-6.56,10.79c-3.62,0-6.56-4.83-6.56-10.79c0-5.96,2.94-10.79,6.56-10.79C30.4,1.26,33.34,6.09,33.34,12.05
		 M71.18,17.71c-0.29,1.23-0.87,2.65-1.67,3.64c-0.89,1.1-1.81,1.4-2.55,1.4c-0.74,0.01-1.39-0.23-1.87-0.69
		c-1.56-1.53-1.79-5.44-1.79-10.01c0-4.57,0.23-8.47,1.79-10.01c0.47-0.47,1.11-0.65,1.85-0.65c0.91,0.01,1.99,0.86,2.84,2.3
		c0.68,1.15,1.23,2.66,1.3,4.41h0.09V1.3l-0.07,0c-0.09,0.78-1.08,0.88-1.88,0.61c-0.79-0.27-1.46-0.62-2.28-0.64
		c-3.62-0.09-6.56,4.83-6.56,10.79c0,5.96,2.94,10.88,6.56,10.79c0.81-0.02,1.87-0.43,2.67-0.72c0.8-0.29,1.73-0.34,1.85,0.69
		l0.07,0v-7.7l-0.06-0.01C71.45,16.01,71.37,16.9,71.18,17.71 M43.47,1.74h10.71v6.08H54.1c0-2.41-1.06-5.95-4.01-5.95h-2.01v9.84
		h0.38c1.1,0,2.75-1.17,2.75-3.95h0.09v8.04h-0.09c0-2.55-1.55-3.96-2.76-3.96h-0.37v10.39h1.95v0.13h-6.55v-0.13h1.93V1.87h-1.93
		V1.74z"/>
</g>
<g>
	<path d="M102.4,4.69c-0.08-0.12-0.16-0.25-0.25-0.37c-0.05,0.08-0.11,0.16-0.16,0.24c-0.02,0.02-0.03,0.02-0.05,0
		c-0.24-0.36-0.48-0.73-0.73-1.09c-0.01,0.02-0.02,0.03-0.03,0.05c-0.18,0.27-0.35,0.54-0.53,0.8c-0.02,0.02-0.03,0.02-0.05,0
		c-0.32-0.49-0.65-0.98-0.97-1.46c-0.05,0.07-0.09,0.14-0.14,0.2c-0.21,0.32-0.43,0.64-0.64,0.97c0.15,0.22,0.29,0.44,0.44,0.67
		L102.4,4.69"/>
	<path d="M100.17,1.73v1.27c0.22,0.33,0.43,0.65,0.65,0.98c0.11-0.16,0.22-0.33,0.32-0.49c0.08-0.12,0.16-0.24,0.24-0.36
		c0.01-0.02,0.03-0.02,0.05,0c0.13,0.19,0.25,0.38,0.38,0.58c0.21,0.32,0.43,0.64,0.64,0.96c0,0.01,0,0.01,0,0.02v0.19
		c0,0.04-0.02,0.06-0.06,0.06h-0.05c-0.06,0-0.09,0.09-0.03,0.12c0.06,0.03,0.11,0.06,0.17,0.09c0.05,0.03,0.04,0.11-0.03,0.12
		c-0.31,0.01-0.63,0.03-0.95,0.04c-0.07,0-0.08,0.1-0.02,0.12c0.14,0.05,0.28,0.1,0.42,0.15c0.06,0.02,0.05,0.1-0.01,0.12
		c-0.38,0.1-0.76,0.19-1.14,0.29c-0.06,0.02-0.06,0.1-0.01,0.12c0.34,0.12,0.68,0.24,1.02,0.36c0.06,0.02,0.05,0.12-0.02,0.12
		c-0.23,0.01-0.45,0.03-0.68,0.04c-0.07,0-0.08,0.09-0.02,0.12c0.18,0.07,0.36,0.15,0.54,0.23c0.06,0.02,0.05,0.11-0.02,0.12
		c-0.3,0.04-0.6,0.02-0.89,0.11c-0.32,0.11-0.27,0.45-0.67,0.66c-0.39,0.21-0.92,0.2-1.31,0.04c-0.39-0.15-0.53-0.24-0.68-0.36
		c-0.13-0.12-0.01-0.29,0.13-0.29c0.42-0.05,1.14-0.11,1.57-0.16c0.06-0.01,0.07-0.09,0.02-0.12c-0.18-0.07-0.36-0.15-0.54-0.23
		c-0.06-0.02-0.05-0.11,0.02-0.12c0.23-0.02,0.45-0.03,0.68-0.04c0.07,0,0.08-0.1,0.02-0.12c-0.34-0.12-0.68-0.24-1.02-0.36
		c-0.06-0.02-0.05-0.1,0.01-0.12c0.38-0.1,0.76-0.19,1.14-0.29c0.06-0.02,0.06-0.1,0.01-0.12c-0.14-0.05-0.28-0.1-0.42-0.15
		c-0.04-0.01-0.05-0.03-0.04-0.07c0.01-0.03,0.02-0.05,0.06-0.05c0.32-0.01,0.63-0.03,0.95-0.04c0.06,0,0.08-0.09,0.03-0.12
		c-0.06-0.03-0.11-0.06-0.17-0.09c-0.06-0.03-0.03-0.12,0.03-0.12h0.15c0.04,0,0.06-0.02,0.06-0.06V4.75h-1.43h-0.37
		c-0.01,0-0.02,0-0.02-0.01c-0.28-0.42-0.56-0.85-0.84-1.27c-0.28,0.42-0.56,0.85-0.84,1.27c-0.01,0.02-0.02,0.02-0.04,0.01
		c-0.02-0.01-0.02-0.02-0.01-0.04c0.29-0.44,0.58-0.87,0.87-1.31c0.06-0.09,0.12-0.18,0.18-0.28c0.02-0.02,0.03-0.02,0.05,0
		c0.19,0.28,0.38,0.57,0.57,0.85c0.21-0.32,0.42-0.63,0.63-0.94c0.01-0.01,0.02-0.02,0.02-0.04V1.72c-1.85,0.18-3.23,1.77-3.15,3.63
		c0.09,1.85,1.61,3.31,3.47,3.32c1.86,0.01,3.39-1.45,3.49-3.3C103.39,3.52,102.01,1.91,100.17,1.73 M100.55,2.17
		c0-0.03,0.02-0.05,0.05-0.05c0.03,0,0.05,0.02,0.05,0.05c0,0.03-0.02,0.05-0.05,0.05C100.57,2.22,100.55,2.2,100.55,2.17
		 M100.6,2.68c0-0.03,0.02-0.05,0.05-0.05c0.03,0,0.05,0.02,0.05,0.05c0,0.03-0.02,0.05-0.05,0.05
		C100.63,2.74,100.6,2.71,100.6,2.68 M100.71,3.38c-0.03,0-0.05-0.02-0.05-0.05c0-0.03,0.02-0.05,0.05-0.05
		c0.03,0,0.05,0.02,0.05,0.05C100.77,3.36,100.75,3.38,100.71,3.38 M101,3.01c-0.03,0-0.05-0.02-0.05-0.05
		c0-0.03,0.02-0.05,0.05-0.05c0.03,0,0.05,0.02,0.05,0.05C101.05,2.99,101.03,3.01,101,3.01 M101.22,2.51
		c-0.03,0-0.05-0.02-0.05-0.05c0-0.03,0.02-0.05,0.05-0.05c0.03,0,0.05,0.02,0.05,0.05C101.28,2.48,101.25,2.51,101.22,2.51
		 M101.65,2.66c-0.03,0-0.05-0.02-0.05-0.05c0-0.03,0.02-0.05,0.05-0.05s0.05,0.02,0.05,0.05S101.68,2.66,101.65,2.66 M101.85,3.36
		c-0.03,0-0.05-0.02-0.05-0.05c0-0.03,0.02-0.05,0.05-0.05c0.03,0,0.05,0.02,0.05,0.05C101.9,3.33,101.88,3.36,101.85,3.36
		 M101.93,2.93c-0.03,0-0.05-0.02-0.05-0.05c0-0.03,0.02-0.05,0.05-0.05s0.05,0.02,0.05,0.05C101.99,2.91,101.96,2.93,101.93,2.93
		 M99.29,2.47c0.03,0,0.05,0.02,0.05,0.05c0,0.03-0.02,0.05-0.05,0.05c-0.03,0-0.05-0.02-0.05-0.05C99.23,2.5,99.26,2.47,99.29,2.47
		 M99.11,1.95c0.03,0,0.05,0.02,0.05,0.05s-0.02,0.05-0.05,0.05c-0.03,0-0.05-0.02-0.05-0.05S99.08,1.95,99.11,1.95 M98.92,3.27
		c0.03,0,0.05,0.02,0.05,0.05c0,0.03-0.02,0.05-0.05,0.05c-0.03,0-0.05-0.02-0.05-0.05C98.87,3.3,98.89,3.27,98.92,3.27 M98.79,2.98
		c0,0.03-0.02,0.05-0.05,0.05c-0.03,0-0.05-0.02-0.05-0.05c0-0.03,0.02-0.05,0.05-0.05C98.77,2.93,98.79,2.95,98.79,2.98
		 M98.65,2.11c0.03,0,0.05,0.02,0.05,0.05c0,0.03-0.02,0.05-0.05,0.05c-0.03,0-0.05-0.02-0.05-0.05
		C98.59,2.14,98.62,2.11,98.65,2.11 M98.62,2.45c0.03,0,0.05,0.02,0.05,0.05c0,0.03-0.02,0.05-0.05,0.05
		c-0.03,0-0.05-0.02-0.05-0.05C98.57,2.47,98.59,2.45,98.62,2.45 M98.06,2.6c0.03,0,0.05,0.02,0.05,0.05c0,0.03-0.02,0.05-0.05,0.05
		C98.03,2.71,98,2.69,98,2.66C98,2.63,98.03,2.6,98.06,2.6 M97.83,2.93c0.03,0,0.05,0.02,0.05,0.05s-0.02,0.05-0.05,0.05
		s-0.05-0.02-0.05-0.05S97.8,2.93,97.83,2.93"/>
</g>
<path d="M91.53,23.07l-0.72,1.51h0.31l0.18-0.37H92l0.18,0.37h0.31l-0.72-1.51H91.53z M91.42,23.96l0.23-0.5l0.23,0.5H91.42z"/>
<polygon points="93.43,24.2 92.82,23.07 92.56,23.07 92.56,24.58 92.85,24.58 92.85,23.69 93.32,24.58 93.55,24.58 94.02,23.69 
	94.02,24.58 94.31,24.58 94.31,23.07 94.04,23.07 "/>
<polygon points="94.38,23.33 94.91,23.33 94.91,24.58 95.2,24.58 95.2,23.33 95.73,23.33 95.73,23.07 94.38,23.07 "/>
<path d="M96.83,23.26L96.83,23.26c-0.14-0.13-0.34-0.19-0.59-0.19H95.8v1.51h0.43c0.25,0,0.44-0.07,0.59-0.19
	c0.17-0.16,0.27-0.35,0.27-0.56C97.09,23.56,96.95,23.37,96.83,23.26 M96.63,24.2L96.63,24.2c-0.1,0.08-0.24,0.12-0.41,0.12h-0.14
	v-1h0.14c0.18,0,0.32,0.04,0.42,0.13c0.1,0.08,0.15,0.21,0.15,0.38C96.78,23.99,96.73,24.12,96.63,24.2"/>
<g>
	<path class="st1" d="M98.08,24.26c0.05,0.01-0.07,0.07-0.03,0.1c0.02,0.02,0.09,0,0.1,0c0.01,0,0.11-0.02,0.15-0.05
		c0.02-0.01,0.03-0.02,0.04-0.02c0.01-0.04,0.03-0.07,0.03-0.09c0.05-0.14,0.22-0.46,0.33-0.64c0.01-0.02,0.03-0.05,0.05-0.07
		c0.02-0.02,0.06-0.01,0.08,0.01c0.02,0.02-0.03,0.02-0.03,0.04c-0.15,0.22-0.27,0.45-0.38,0.69c0,0-0.01,0.02-0.01,0.03
		c0,0,0.01,0,0.02,0c0.07-0.03,0.13-0.06,0.2-0.09c0.21-0.11,0.41-0.23,0.59-0.4c0.09-0.09,0.18-0.18,0.23-0.3
		c0.04-0.11,0-0.19-0.12-0.2c-0.13-0.02-0.25,0.02-0.37,0.07c-0.32,0.12-0.56,0.33-0.78,0.58c-0.07,0.08-0.14,0.15-0.18,0.26
		c0,0.01-0.01,0.05-0.03,0.05c0,0-0.01,0-0.01,0c-0.03-0.06-0.01-0.1,0.01-0.15c0.12-0.2,0.28-0.37,0.46-0.52
		c0.17-0.14,0.37-0.26,0.58-0.33c0.11-0.03,0.22-0.06,0.34-0.03c0.17,0.04,0.23,0.18,0.15,0.34c-0.08,0.15-0.2,0.27-0.34,0.37
		c-0.29,0.21-0.6,0.39-0.96,0.48c-0.04,0.01-0.07,0.01-0.11,0.01C98.04,24.4,98,24.39,98,24.34C98,24.29,98.06,24.25,98.08,24.26"/>
</g>
<g>
	<path class="st1" d="M98.11,24.42c-0.01,0-0.03,0-0.04,0c-0.03-0.01-0.09-0.02-0.09-0.08c0-0.03,0.01-0.05,0.04-0.07
		c0.02-0.02,0.04-0.03,0.06-0.02l0,0c0.01,0,0.02,0.01,0.02,0.02c0,0.01-0.01,0.03-0.03,0.05c-0.01,0.01-0.03,0.03-0.03,0.03
		c0,0,0,0,0,0c0.01,0.01,0.03,0.01,0.09,0c0.01,0,0.11-0.02,0.15-0.05c0.02-0.01,0.03-0.02,0.03-0.02c0.01-0.03,0.02-0.05,0.03-0.07
		l0.01-0.02c0.05-0.14,0.22-0.47,0.33-0.64c0.02-0.02,0.03-0.05,0.05-0.07c0.01-0.01,0.02-0.01,0.04-0.01
		c0.02,0,0.04,0.01,0.05,0.02c0.01,0.01,0.01,0.01,0.01,0.02c0,0.01-0.01,0.02-0.02,0.02c-0.01,0-0.01,0.01-0.02,0.01
		c-0.15,0.23-0.28,0.46-0.38,0.69c0,0,0,0.01-0.01,0.01c0.02-0.01,0.04-0.02,0.06-0.03c0.05-0.02,0.09-0.04,0.13-0.06
		c0.23-0.13,0.42-0.24,0.59-0.4c0.08-0.08,0.18-0.17,0.23-0.3c0.02-0.05,0.02-0.1,0-0.13c-0.02-0.03-0.06-0.05-0.11-0.06
		c-0.13-0.02-0.25,0.02-0.37,0.07c-0.27,0.1-0.52,0.29-0.78,0.58l-0.02,0.02c-0.07,0.08-0.13,0.14-0.16,0.24c0,0,0,0,0,0.01
		c0,0.02-0.01,0.05-0.04,0.06c-0.01,0-0.01,0-0.02-0.01c-0.03-0.07-0.01-0.11,0.01-0.16c0.12-0.19,0.27-0.37,0.46-0.52
		c0.19-0.16,0.39-0.27,0.59-0.33c0.11-0.03,0.22-0.06,0.34-0.03c0.09,0.02,0.15,0.07,0.18,0.13c0.03,0.06,0.02,0.14-0.02,0.22
		c-0.07,0.14-0.18,0.26-0.34,0.37c-0.35,0.26-0.65,0.4-0.96,0.48C98.16,24.42,98.14,24.42,98.11,24.42z M98.08,24.27
		c-0.01,0-0.02,0.01-0.04,0.02c-0.01,0.01-0.03,0.03-0.03,0.05c0,0.04,0.03,0.05,0.07,0.06c0.03,0.01,0.06,0,0.1-0.01
		c0.31-0.07,0.6-0.22,0.95-0.48c0.15-0.11,0.26-0.23,0.33-0.37c0.04-0.07,0.04-0.14,0.02-0.2c-0.03-0.06-0.08-0.1-0.16-0.12
		c-0.12-0.03-0.23-0.01-0.33,0.03c-0.2,0.06-0.39,0.17-0.58,0.32c-0.18,0.15-0.34,0.33-0.45,0.51c-0.03,0.04-0.04,0.08-0.01,0.13
		c0.01-0.01,0.01-0.03,0.02-0.04c0,0,0-0.01,0-0.01c0.04-0.1,0.1-0.17,0.17-0.24l0.02-0.02c0.26-0.3,0.51-0.48,0.79-0.59
		c0.12-0.04,0.24-0.09,0.38-0.07c0.06,0.01,0.1,0.03,0.13,0.07c0.02,0.04,0.02,0.09,0,0.15c-0.05,0.13-0.15,0.23-0.23,0.31
		c-0.17,0.15-0.36,0.27-0.59,0.4c-0.04,0.02-0.09,0.04-0.13,0.07c-0.02,0.01-0.04,0.02-0.06,0.03c-0.01,0.01-0.02,0.01-0.03,0l0,0
		l0-0.01c0.01-0.02,0.01-0.03,0.01-0.04c0.1-0.23,0.23-0.47,0.38-0.7c0-0.01,0.02-0.02,0.03-0.02c0,0,0.01,0,0.01-0.01c0,0,0,0,0,0
		c-0.01-0.01-0.02-0.01-0.04-0.01c-0.01,0-0.02,0-0.03,0.01c-0.02,0.02-0.03,0.04-0.05,0.06c-0.11,0.17-0.28,0.5-0.33,0.63
		l-0.01,0.02c-0.01,0.02-0.02,0.05-0.03,0.07c0,0.01-0.03,0.03-0.04,0.03c-0.05,0.03-0.15,0.05-0.16,0.05
		c-0.04,0.01-0.09,0.01-0.11-0.01c-0.01-0.01-0.01-0.01-0.01-0.02c0-0.02,0.02-0.03,0.03-0.05C98.07,24.29,98.08,24.27,98.08,24.27
		C98.08,24.27,98.08,24.27,98.08,24.27C98.08,24.27,98.08,24.27,98.08,24.27z M97.94,24.22C97.94,24.22,97.94,24.22,97.94,24.22
		C97.94,24.22,97.94,24.22,97.94,24.22z"/>
</g>
<g>
	<path class="st1" d="M100.29,23.43c0,0.01-0.02,0.02-0.03,0.01c-0.02-0.1-0.07-0.13-0.24-0.1c-0.14,0.04-0.26,0.1-0.37,0.18
		c-0.02,0.01-0.05,0.03-0.04,0.05c0,0.01,0.04,0.01,0.06,0.01c0.04,0,0.08-0.01,0.13-0.01c0.02,0,0.04,0,0.05,0.02
		c0.01,0.03-0.02,0.03-0.03,0.04c-0.2,0.1-0.38,0.23-0.54,0.4c-0.07,0.07-0.14,0.18-0.15,0.22c-0.01,0.03-0.01,0.09,0.05,0.09
		c0.06,0.01,0.18-0.04,0.31-0.09c0.22-0.1,0.45-0.21,0.67-0.31c0.02-0.01,0.06-0.03,0.07-0.01c0.01,0.02-0.03,0.04-0.04,0.05
		c-0.27,0.15-0.53,0.3-0.82,0.4c-0.05,0.02-0.11,0.03-0.16,0.03c-0.13,0.01-0.18-0.07-0.14-0.19c0.03-0.07,0.07-0.12,0.12-0.18
		c0.11-0.13,0.25-0.24,0.4-0.34c0.03-0.02,0.1-0.04,0-0.07c-0.05-0.01-0.04-0.08,0.01-0.13c0.1-0.09,0.22-0.15,0.35-0.19
		c0.06-0.02,0.13-0.04,0.19-0.03C100.22,23.28,100.31,23.33,100.29,23.43"/>
</g>
<g>
	<path class="st1" d="M99.19,24.41c-0.06,0-0.1-0.02-0.12-0.05c-0.03-0.04-0.03-0.09-0.01-0.15c0.03-0.07,0.07-0.13,0.12-0.18
		c0.13-0.15,0.28-0.26,0.4-0.34c0.01,0,0.01-0.01,0.02-0.01c0.01,0,0.03-0.01,0.03-0.02l0,0c0,0-0.01-0.01-0.04-0.02
		c-0.02-0.01-0.04-0.02-0.04-0.04c-0.01-0.03,0.01-0.07,0.05-0.1c0.1-0.08,0.21-0.15,0.35-0.2c0.06-0.02,0.12-0.04,0.2-0.03
		c0.06,0.01,0.12,0.04,0.14,0.07c0.02,0.03,0.03,0.06,0.02,0.1v0c0,0.01-0.02,0.02-0.03,0.02l0,0c-0.01,0-0.02-0.01-0.02-0.02
		c-0.02-0.09-0.06-0.13-0.23-0.09c-0.13,0.03-0.25,0.09-0.37,0.18l-0.01,0c-0.01,0.01-0.03,0.02-0.03,0.04c0,0,0.02,0,0.05,0l0,0
		c0.02,0,0.05,0,0.07-0.01c0.02,0,0.03,0,0.05-0.01c0.02,0,0.05,0,0.06,0.03c0.01,0.03-0.02,0.04-0.03,0.05l-0.01,0
		c-0.2,0.1-0.38,0.23-0.54,0.39c-0.07,0.07-0.13,0.18-0.15,0.21c-0.01,0.02-0.01,0.04,0,0.06c0.01,0.01,0.02,0.02,0.04,0.02
		c0,0,0.01,0,0.01,0c0.06,0,0.19-0.05,0.3-0.09c0.14-0.06,0.28-0.13,0.42-0.19c0.08-0.04,0.17-0.08,0.25-0.12c0,0,0,0,0.01,0
		c0.02-0.01,0.06-0.03,0.08,0c0,0.01,0.01,0.01,0,0.02c0,0.02-0.03,0.03-0.04,0.04l-0.04,0.02c-0.25,0.14-0.51,0.28-0.79,0.38
		c-0.05,0.02-0.1,0.03-0.17,0.03C99.21,24.41,99.2,24.41,99.19,24.41z M100.1,23.28c-0.05,0-0.1,0.01-0.15,0.03
		c-0.14,0.05-0.25,0.11-0.35,0.19c-0.03,0.03-0.05,0.06-0.04,0.08c0,0.01,0.01,0.02,0.03,0.03c0.04,0.01,0.06,0.02,0.06,0.04
		c0,0.02-0.02,0.03-0.04,0.04c-0.01,0-0.01,0.01-0.02,0.01c-0.12,0.08-0.27,0.19-0.39,0.34c-0.04,0.05-0.09,0.11-0.11,0.18
		c-0.02,0.05-0.02,0.1,0.01,0.13c0.02,0.03,0.07,0.05,0.12,0.04c0.06,0,0.12-0.01,0.16-0.03c0.28-0.1,0.53-0.24,0.78-0.38l0.04-0.02
		c0.01-0.01,0.03-0.02,0.03-0.03c0,0,0,0,0,0c-0.01-0.01-0.03,0-0.05,0.01c0,0-0.01,0-0.01,0c-0.08,0.04-0.17,0.08-0.25,0.12
		c-0.14,0.07-0.28,0.13-0.42,0.19c-0.14,0.06-0.24,0.09-0.3,0.09c0,0-0.01,0-0.01,0c-0.03,0-0.05-0.02-0.06-0.03
		c-0.02-0.03-0.01-0.06-0.01-0.08c0.01-0.03,0.08-0.15,0.15-0.22c0.16-0.16,0.34-0.3,0.54-0.4l0.01,0c0.02-0.01,0.03-0.01,0.02-0.03
		c0-0.01-0.02-0.01-0.04-0.01c-0.02,0-0.03,0-0.05,0.01c-0.02,0-0.05,0.01-0.08,0.01l0,0c-0.03,0-0.06,0-0.07-0.02
		c-0.01-0.02,0.02-0.04,0.04-0.06l0.01,0c0.12-0.09,0.24-0.15,0.37-0.19c0.16-0.03,0.23,0,0.25,0.11c0,0,0,0,0,0c0,0,0,0,0,0
		c0.01-0.03,0-0.06-0.02-0.08c-0.02-0.03-0.07-0.06-0.13-0.06C100.13,23.28,100.11,23.28,100.1,23.28z"/>
</g>
<g>
	<path class="st1" d="M97.42,23.8c0-0.03,0.04-0.08,0.14-0.18c0,0,0.17-0.19,0.5-0.33c0.02-0.01,0.03-0.01,0.05-0.02
		c0.03-0.01,0.06-0.02,0.09,0c0.03,0.03,0.03,0.06,0.01,0.1c-0.04,0.08-0.09,0.16-0.14,0.24c-0.13,0.19-0.25,0.37-0.38,0.56
		c-0.06,0.1-0.12,0.14,0.04,0.15c0.03,0-0.01,0.03-0.01,0.03c-0.17-0.01-0.15,0.03-0.23,0.14c0,0-0.02,0.03-0.04,0.05
		c-0.01,0.01-0.02,0.04-0.04,0.03c-0.02-0.01-0.01-0.04-0.01-0.06c0,0,0-0.01,0-0.01c0.02-0.03,0.06-0.1,0.03-0.1
		c-0.07,0.01-0.18,0.07-0.19,0.09c0,0-0.01,0.03-0.02,0.04c0,0-0.01,0-0.01,0c-0.03-0.01-0.01-0.06,0-0.07
		c0.04-0.04,0.08-0.06,0.14-0.08c0.18-0.06,0.17-0.08,0.23-0.17c0.17-0.26,0.36-0.52,0.54-0.78c0.02-0.03,0.05-0.06,0.01-0.08
		c-0.02-0.02-0.05,0-0.08,0.01c-0.29,0.14-0.43,0.22-0.54,0.37c-0.02,0.02-0.05,0.1-0.07,0.11C97.44,23.84,97.42,23.82,97.42,23.8"
		/>
</g>
<g>
	<path class="st1" d="M97.43,24.59c0,0-0.01,0-0.01,0c-0.02-0.01-0.02-0.03-0.01-0.07c0,0,0-0.01,0.01-0.01
		c0-0.01,0.01-0.02,0.01-0.02c0.01-0.02,0.03-0.05,0.03-0.06c-0.07,0.01-0.17,0.07-0.18,0.08c0,0,0,0,0,0
		c0,0.01-0.01,0.03-0.03,0.04c-0.01,0-0.01,0-0.02,0c-0.01-0.01-0.02-0.01-0.02-0.03c0-0.02,0.01-0.05,0.02-0.06
		c0.04-0.05,0.1-0.07,0.14-0.09c0.16-0.06,0.17-0.07,0.21-0.14c0-0.01,0.01-0.01,0.02-0.02c0.12-0.18,0.24-0.36,0.36-0.53
		c0.06-0.08,0.12-0.17,0.18-0.25l0-0.01c0.01-0.02,0.02-0.03,0.02-0.05c0,0,0-0.01-0.01-0.01c-0.02-0.01-0.04,0-0.06,0.01l-0.01,0
		c-0.29,0.14-0.43,0.22-0.53,0.37c-0.01,0.01-0.01,0.02-0.02,0.04c-0.02,0.04-0.04,0.07-0.05,0.07c-0.01,0-0.02,0-0.03,0
		c-0.01-0.01-0.02-0.02-0.02-0.04l0,0c0-0.03,0.04-0.08,0.14-0.19c0,0,0.18-0.2,0.5-0.33c0.02-0.01,0.03-0.01,0.05-0.02l0.01,0
		c0.03-0.01,0.07-0.02,0.09,0.01c0.03,0.03,0.04,0.07,0.02,0.11c-0.04,0.08-0.09,0.16-0.14,0.24c-0.08,0.12-0.16,0.24-0.25,0.37
		c-0.04,0.07-0.09,0.13-0.13,0.2c-0.01,0.01-0.02,0.02-0.02,0.03c-0.02,0.03-0.04,0.06-0.04,0.08c0.01,0.01,0.04,0.02,0.09,0.03
		c0.02,0,0.02,0.02,0.02,0.02c0,0.01-0.02,0.03-0.03,0.03c0,0,0,0,0,0c-0.13-0.01-0.14,0.01-0.18,0.07
		c-0.01,0.02-0.02,0.04-0.04,0.06l0,0c-0.01,0.01-0.02,0.03-0.03,0.04c0,0,0,0.01-0.01,0.01C97.46,24.57,97.44,24.59,97.43,24.59z
		 M97.45,24.39c0.01,0,0.01,0,0.02,0.01c0.01,0.01,0,0.04-0.02,0.09c0,0.01-0.01,0.02-0.01,0.02c0,0,0,0.01,0,0.01
		c-0.01,0.02-0.01,0.04,0,0.05c0,0,0.01,0,0.02-0.02c0,0,0-0.01,0.01-0.01c0.01-0.01,0.03-0.03,0.03-0.04l0,0
		c0.02-0.02,0.03-0.04,0.04-0.06c0.04-0.06,0.06-0.09,0.2-0.08c0,0,0,0,0.01-0.01c-0.06-0.01-0.09-0.02-0.1-0.04
		c-0.01-0.02,0.01-0.06,0.04-0.1c0.01-0.01,0.01-0.02,0.02-0.03c0.04-0.07,0.09-0.13,0.13-0.2c0.08-0.12,0.16-0.24,0.25-0.37
		c0.05-0.08,0.1-0.16,0.14-0.24c0.02-0.03,0.01-0.06-0.01-0.09c-0.02-0.02-0.05-0.01-0.07,0l-0.01,0c-0.02,0.01-0.03,0.01-0.05,0.02
		c-0.32,0.13-0.49,0.32-0.49,0.32c-0.08,0.09-0.13,0.15-0.13,0.17v0c0,0.01,0,0.02,0.01,0.02c0,0,0.01,0,0.01,0
		c0.01,0,0.03-0.04,0.04-0.06c0.01-0.02,0.02-0.03,0.02-0.04c0.11-0.16,0.25-0.23,0.54-0.38l0.01,0c0.03-0.01,0.06-0.03,0.09-0.01
		c0.01,0.01,0.02,0.02,0.02,0.03c0,0.02-0.01,0.04-0.03,0.06l0,0.01c-0.06,0.08-0.12,0.17-0.18,0.25c-0.12,0.17-0.24,0.35-0.36,0.53
		c-0.01,0.01-0.01,0.02-0.01,0.02c-0.05,0.07-0.06,0.09-0.22,0.15c-0.06,0.02-0.1,0.04-0.13,0.08c-0.01,0.01-0.02,0.03-0.01,0.04
		c0,0.01,0,0.01,0.01,0.01c0,0,0,0,0,0c0.01,0,0.01-0.02,0.02-0.02c0,0,0,0,0-0.01C97.26,24.46,97.37,24.4,97.45,24.39
		C97.45,24.39,97.45,24.39,97.45,24.39z M97.73,24.34L97.73,24.34L97.73,24.34z"/>
</g>
<g>
	<path class="st1" d="M101.4,23.27c0.01-0.03,0.03-0.06-0.01-0.08c-0.03-0.02-0.05,0.01-0.08,0.03c-0.18,0.16-0.32,0.35-0.46,0.55
		c-0.06,0.09-0.06,0.14-0.24,0.15c-0.07,0.01-0.07-0.02-0.05-0.06c0.04-0.09,0.06-0.19,0.12-0.27c0.02-0.03,0.03-0.06,0.02-0.09
		c0-0.01-0.01-0.02-0.03-0.02c-0.02,0-0.04,0.04-0.06,0.07c-0.04,0.1-0.08,0.21-0.12,0.31c-0.02,0.06-0.02,0.09-0.11,0.11
		c-0.06,0.02-0.12,0.03-0.18,0.05c-0.01,0-0.05,0.01-0.04,0.03c0.01,0.02,0.04,0.01,0.05,0.01c0.05-0.01,0.11-0.02,0.16-0.03
		c0.07-0.02,0.08-0.02,0.05,0.04c-0.03,0.07-0.05,0.16-0.07,0.23c-0.01,0.03,0,0.06,0.03,0.08c0.03,0.02,0.05,0.01,0.08-0.01
		c0.03-0.03,0.06-0.05,0.09-0.09c0.06-0.08,0.14-0.16,0.19-0.25c0.04-0.08,0.06-0.08,0.12-0.08c0.01,0,0.06,0,0.07,0
		c0.09,0,0.09-0.01,0.05,0.08c-0.04,0.1-0.08,0.21-0.11,0.32c-0.03,0.09-0.05,0.19-0.06,0.28c0,0.02,0,0.08,0.03,0.08
		c0.03,0,0.03-0.05,0.04-0.07c0.03-0.19,0.1-0.36,0.16-0.53c0.02-0.06,0.02-0.05,0.03-0.09c0-0.01,0.03-0.06,0.03-0.06
		c0.04,0,0.06,0.01,0.08,0.01c0.05,0,0.07,0,0.08,0c0.01,0-0.02-0.02-0.04-0.03c-0.01,0-0.09-0.03-0.09-0.03
		c0.01-0.04,0.04-0.09,0.04-0.11C101.25,23.62,101.32,23.45,101.4,23.27 M100.69,24.01c-0.07,0.11-0.13,0.21-0.22,0.3
		c-0.01,0.01-0.02,0.02-0.03,0.02c-0.02,0-0.01-0.02-0.01-0.04c0.02-0.09,0.05-0.18,0.08-0.27c0.02-0.06,0.13-0.05,0.14-0.05
		C100.7,23.97,100.72,23.96,100.69,24.01 M101.14,23.68c-0.02,0.04-0.04,0.07-0.05,0.11c-0.04,0.09-0.03,0.11-0.18,0.09
		c-0.03,0-0.03-0.01-0.02-0.04c0.03-0.05,0.31-0.41,0.4-0.5c0,0,0.01,0,0.01,0.01C101.25,23.46,101.18,23.59,101.14,23.68"/>
</g>
<g>
	<path class="st1" d="M100.85,24.72C100.84,24.72,100.84,24.72,100.85,24.72c-0.04-0.01-0.05-0.05-0.04-0.09
		c0.01-0.12,0.03-0.2,0.06-0.28c0.04-0.11,0.08-0.22,0.12-0.32l0.01-0.01c0.01-0.02,0.02-0.04,0.02-0.05c0,0-0.01,0-0.03,0
		c-0.01,0-0.02,0-0.04,0c-0.01,0-0.06,0-0.07,0c-0.06,0-0.07,0-0.11,0.08c-0.04,0.06-0.08,0.12-0.13,0.18
		c-0.02,0.02-0.04,0.05-0.06,0.07c-0.02,0.03-0.05,0.06-0.09,0.09c-0.02,0.02-0.05,0.04-0.09,0.01c-0.03-0.02-0.04-0.06-0.03-0.09
		l0.01-0.04c0.02-0.06,0.03-0.14,0.06-0.19c0-0.01,0.01-0.03,0.01-0.04c0,0-0.03,0.01-0.05,0.01l0,0c-0.04,0.01-0.09,0.02-0.13,0.03
		l-0.02,0c-0.02,0-0.05,0.01-0.06-0.01c0-0.01,0-0.01,0-0.02c0.01-0.01,0.03-0.02,0.04-0.03l0,0c0.05-0.02,0.1-0.03,0.16-0.04
		l0.03-0.01c0.07-0.02,0.08-0.04,0.09-0.08c0-0.01,0.01-0.02,0.01-0.02c0.02-0.05,0.04-0.11,0.06-0.16c0.02-0.05,0.04-0.1,0.06-0.15
		c0.02-0.05,0.04-0.08,0.06-0.08c0.02,0,0.03,0.01,0.04,0.02c0.01,0.04,0,0.07-0.02,0.1c-0.04,0.07-0.07,0.14-0.1,0.21
		c-0.01,0.02-0.01,0.04-0.02,0.06c0,0.01-0.01,0.03-0.01,0.04c0,0,0.01,0.01,0.05,0.01c0.15-0.01,0.17-0.05,0.21-0.11
		c0.01-0.01,0.02-0.03,0.03-0.04c0.16-0.24,0.3-0.41,0.46-0.55l0.01-0.01c0.02-0.02,0.05-0.04,0.08-0.02
		c0.04,0.03,0.02,0.07,0.01,0.09l0,0.01c-0.04,0.09-0.08,0.18-0.12,0.27c-0.04,0.08-0.07,0.16-0.11,0.25l0,0.01
		c-0.01,0.02-0.03,0.07-0.04,0.1c0.01,0.01,0.05,0.02,0.08,0.03c0.01,0,0.04,0.02,0.05,0.03c0,0.01,0,0.01-0.01,0.01
		c-0.01,0.01-0.03,0.01-0.09,0c-0.02,0-0.03,0-0.06-0.01l-0.01,0c-0.01,0.02-0.03,0.05-0.03,0.06l-0.01,0.01
		c-0.01,0.02-0.01,0.02-0.02,0.05l-0.01,0.02c-0.01,0.02-0.02,0.05-0.03,0.07c-0.05,0.15-0.11,0.3-0.13,0.46l0,0.01
		c0,0.02-0.01,0.05-0.02,0.06C100.86,24.72,100.85,24.72,100.85,24.72z M100.87,23.94c0.01,0,0.06,0,0.07,0c0.05,0,0.07,0,0.08,0.01
		c0.01,0.01,0,0.03-0.01,0.07L101,24.03c-0.04,0.1-0.08,0.2-0.11,0.32c-0.03,0.08-0.04,0.17-0.06,0.28c0,0.03,0,0.07,0.02,0.07
		c0,0,0.01,0,0.01,0c0.01-0.01,0.01-0.03,0.01-0.05l0-0.01c0.02-0.16,0.08-0.31,0.13-0.46c0.01-0.02,0.02-0.05,0.03-0.07l0.01-0.02
		c0.01-0.03,0.01-0.03,0.02-0.05l0.01-0.01c0-0.01,0.03-0.06,0.03-0.07l0-0.01l0.02,0c0.03,0,0.04,0.01,0.06,0.01
		c0.02,0,0.04,0,0.06,0c-0.01,0-0.01-0.01-0.02-0.01c-0.09-0.03-0.1-0.03-0.1-0.04l0,0l0-0.01c0.01-0.03,0.03-0.08,0.04-0.11l0-0.01
		c0.04-0.08,0.07-0.16,0.11-0.25c0.04-0.09,0.08-0.18,0.12-0.27l0-0.01c0.01-0.03,0.02-0.05,0-0.07c-0.02-0.01-0.03,0-0.06,0.02
		l-0.01,0.01c-0.15,0.14-0.3,0.31-0.46,0.55c-0.01,0.01-0.02,0.03-0.02,0.04c-0.04,0.07-0.06,0.11-0.22,0.12
		c-0.04,0-0.06,0-0.07-0.01c-0.01-0.01,0-0.04,0-0.06c0.01-0.02,0.01-0.04,0.02-0.06c0.03-0.07,0.06-0.15,0.1-0.22
		c0.02-0.03,0.03-0.05,0.02-0.08c0,0-0.01-0.01-0.01-0.01c-0.01,0-0.03,0.03-0.05,0.06c-0.02,0.05-0.04,0.1-0.06,0.15
		c-0.02,0.05-0.04,0.11-0.06,0.16c0,0.01-0.01,0.02-0.01,0.02c-0.02,0.04-0.03,0.07-0.11,0.09l-0.03,0.01
		c-0.05,0.01-0.1,0.02-0.16,0.04l0,0c-0.03,0.01-0.03,0.01-0.03,0.01c0,0,0.01,0.01,0.04,0l0.02,0c0.04-0.01,0.09-0.02,0.13-0.03
		l0,0c0.04-0.01,0.06-0.02,0.07-0.01c0.01,0.01,0,0.03-0.01,0.06c-0.02,0.06-0.04,0.13-0.05,0.19l-0.01,0.04
		c-0.01,0.03,0,0.05,0.03,0.07c0.02,0.01,0.04,0.01,0.06-0.01c0.03-0.03,0.06-0.05,0.08-0.08c0.02-0.02,0.04-0.05,0.06-0.07
		c0.05-0.06,0.09-0.12,0.13-0.18C100.79,23.95,100.8,23.94,100.87,23.94z M100.43,24.34C100.43,24.34,100.43,24.34,100.43,24.34
		c-0.03-0.01-0.02-0.03-0.02-0.04l0,0c0.01-0.07,0.04-0.14,0.06-0.2c0.01-0.02,0.02-0.05,0.02-0.07c0.02-0.06,0.11-0.06,0.15-0.06
		c0,0,0.01,0,0.01,0c0.01,0,0.01,0,0.02,0c0.02,0,0.03,0,0.04,0.01c0.01,0.01,0,0.03-0.01,0.05l0,0c-0.06,0.1-0.13,0.21-0.22,0.3
		C100.47,24.33,100.45,24.34,100.43,24.34z M100.63,23.98c-0.04,0-0.1,0-0.11,0.04c-0.01,0.02-0.02,0.05-0.02,0.07
		c-0.02,0.06-0.05,0.13-0.06,0.2l0,0c0,0.02,0,0.02,0,0.02c0,0,0,0,0,0c0,0,0.01-0.01,0.02-0.01c0.09-0.09,0.16-0.2,0.22-0.3l0,0
		c0.01-0.02,0.01-0.02,0.01-0.03c0,0-0.01,0-0.02,0c-0.01,0-0.01,0-0.02,0c0,0,0,0-0.01,0C100.64,23.98,100.63,23.98,100.63,23.98z
		 M100.99,23.9c-0.02,0-0.05,0-0.08-0.01c-0.01,0-0.03,0-0.03-0.02c-0.01-0.01,0-0.03,0-0.04c0.02-0.05,0.31-0.41,0.4-0.51
		c0.01-0.01,0.01-0.01,0.02,0c0.01,0,0.01,0.01,0.01,0.02c-0.02,0.07-0.06,0.15-0.1,0.22c-0.02,0.04-0.04,0.08-0.05,0.12l0,0
		c-0.01,0.02-0.02,0.04-0.03,0.06c-0.01,0.02-0.02,0.03-0.02,0.05c0,0.01-0.01,0.02-0.01,0.03C101.06,23.88,101.05,23.9,100.99,23.9
		z M101.27,23.37c-0.1,0.11-0.36,0.44-0.38,0.49c-0.01,0.01,0,0.02,0,0.02c0,0,0,0,0.02,0.01c0.13,0.01,0.13,0.01,0.16-0.06
		c0-0.01,0.01-0.02,0.01-0.03c0.01-0.02,0.02-0.04,0.03-0.05c0.01-0.02,0.02-0.04,0.03-0.06l0,0c0.02-0.04,0.04-0.08,0.06-0.12
		C101.22,23.5,101.25,23.43,101.27,23.37z M101.28,23.35L101.28,23.35L101.28,23.35z"/>
</g>
<g>
	<path class="st1" d="M101.05,24.73c-0.04,0-0.07-0.03-0.07-0.07s0.03-0.07,0.07-0.07c0.04,0,0.07,0.03,0.07,0.07
		S101.09,24.73,101.05,24.73 M101.11,24.59c-0.02-0.02-0.04-0.03-0.06-0.03c-0.02,0-0.05,0.01-0.06,0.03
		c-0.02,0.02-0.03,0.04-0.03,0.06s0.01,0.05,0.03,0.06c0.02,0.02,0.04,0.03,0.06,0.03c0.02,0,0.05-0.01,0.06-0.03
		c0.02-0.02,0.03-0.04,0.03-0.06S101.13,24.61,101.11,24.59"/>
</g>
<g>
	<path class="st1" d="M101.05,24.65h-0.02v-0.03c0,0,0.01,0,0.01,0c0.02,0,0.03,0.01,0.03,0.02
		C101.07,24.64,101.07,24.65,101.05,24.65 M101.07,24.66c0.01,0,0.02-0.01,0.02-0.02c0-0.01,0-0.02-0.01-0.02
		c-0.01-0.01-0.02-0.01-0.03-0.01c-0.01,0-0.02,0-0.03,0v0.1h0.01v-0.04h0.02c0.01,0,0.02,0.01,0.03,0.04h0.01
		c0-0.02-0.01-0.03-0.01-0.03C101.08,24.66,101.08,24.66,101.07,24.66"/>
</g>
</svg>
