<svg xmlns="http://www.w3.org/2000/svg" viewBox="0 0 230 230">
  <defs/>
  <path d="M190.8 29.3c-5.1-7.8-12-10.3-20.2-10.3-8 0-14.8 2.3-20 10.3-8.7 12.9-12.5 39.9-12.5 86.4 0 53 3.7 73.5 12.5 86.4 5.1 7.6 12 10.3 20 10.3 8.2 0 15-2.6 20.2-10.3 8.7-12.9 12.5-33.3 12.5-86.4 0-46.5-3.8-73.5-12.5-86.4M170.6 213c-32.7 0-59.2-43.5-59.2-97.3 0-52.2 24.8-97.6 59.2-97.6 32.9 0 59.4 43.5 59.4 97.6 0 53.7-26.5 97.3-59.4 97.3M102.3 208.5H1.4c-.4 0-.4-1 0-1h16.1c.7 0 1.1-.3 1.1-1v-182c0-.8-.4-1-1.1-1H1.4c-.4 0-.4-1 0-1h58.9c.4 0 .4 1 0 1H44.2c-.7 0-1.1.3-1.1 1v181.9c0 .8.4 1 1.1 1h18.2c27.6 0 39.8-34.7 39.8-61.4 0-.5.7-.5.7 0v61.6c0 .6-.2.9-.6.9M87.4 86c-.4.3-.4-.8-.2-1 2.8-1 5.5-2.9 7.2-4.7 5.5-5.5 8.5-11.8 8.5-17.8 0-5.7-2.6-11.6-8.1-16.3-2.8-2.3-5.4-6.8-5.4-12.6 0-8.5 5.4-15.6 12.3-15.6 8.5 0 13 7.3 13 19.4-.1 14.7-13.1 43.1-27.3 48.6"/>
</svg>
